<?xml version="1.0" standalone="no"?>
<!DOCTYPE svg PUBLIC "-//W3C//DTD SVG 20010904//EN"
 "http://www.w3.org/TR/2001/REC-SVG-20010904/DTD/svg10.dtd">
<svg version="1.0" xmlns="http://www.w3.org/2000/svg"
 width="512.000000pt" height="512.000000pt" viewBox="0 0 512.000000 512.000000"
 preserveAspectRatio="xMidYMid meet">
<metadata>
Created by potrace 1.14, written by Peter Selinger 2001-2017
</metadata>
<g transform="translate(0.000000,512.000000) scale(0.100000,-0.100000)"
fill="#000000" stroke="none">
<path d="M0 2560 l0 -2560 2560 0 2560 0 0 2560 0 2560 -2560 0 -2560 0 0
-2560z m3389 158 l-4 -933 368 -3 367 -2 0 -110 0 -110 -505 0 -505 0 0 1045
0 1045 141 0 141 0 -3 -932z m-1354 905 c3 -10 137 -378 296 -818 160 -440
326 -898 370 -1019 43 -120 79 -220 79 -222 0 -2 -64 -4 -142 -4 l-143 0 -74
208 c-41 114 -80 219 -88 235 l-14 27 -452 -2 -452 -3 -84 -232 -84 -233 -144
0 c-81 0 -143 4 -141 9 2 5 172 473 378 1040 l375 1031 156 0 c140 0 158 -2
164 -17z"/>
<path d="M1681 2774 c-101 -283 -181 -517 -179 -519 3 -3 171 -4 375 -3 l370
3 -185 518 c-102 284 -188 517 -191 517 -3 0 -89 -232 -190 -516z"/>
</g>
</svg>
