<svg width="20" height="20" viewBox="0 0 20 20" fill="none" xmlns="http://www.w3.org/2000/svg">
<path d="M17.8417 9.65001L10.3417 2.15001C10.0417 1.85001 9.62502 1.66667 9.16669 1.66667H3.33335C2.41669 1.66667 1.66669 2.41667 1.66669 3.33334V9.16667C1.66669 9.62501 1.85002 10.0417 2.15835 10.35L9.65835 17.85C9.95835 18.15 10.375 18.3333 10.8334 18.3333C11.2917 18.3333 11.7084 18.15 12.0084 17.8417L17.8417 12.0083C18.15 11.7083 18.3334 11.2917 18.3334 10.8333C18.3334 10.375 18.1417 9.95001 17.8417 9.65001ZM4.58335 5.83334C3.89169 5.83334 3.33335 5.27501 3.33335 4.58334C3.33335 3.89167 3.89169 3.33334 4.58335 3.33334C5.27502 3.33334 5.83335 3.89167 5.83335 4.58334C5.83335 5.27501 5.27502 5.83334 4.58335 5.83334Z" fill="white" fill-opacity="0.7"/>
</svg>
